HIERARCHY
ROOT Hips
{
	OFFSET 0.000000 0.000000 0.000000
	CHANNELS 6 Xposition Yposition Zposition Xrotation Yrotation Zrotation
	JOINT LeftUpLeg_virtual
	{
		OFFSET 0.000000 0.000000 0.000000
		CHANNELS 3 Xrotation Yrotation Zrotation
		JOINT LeftUpLeg
		{
			OFFSET 15.427100 -6.655098 0.678600
			CHANNELS 3 Xrotation Yrotation Zrotation
			JOINT LeftLeg
			{
				OFFSET 4.081073 -39.591068 13.024000
				CHANNELS 3 Xrotation Yrotation Zrotation
				JOINT LeftFoot
				{
					OFFSET -4.081074 -37.707932 -15.979700
					CHANNELS 3 Xrotation Yrotation Zrotation
					JOINT LeftToeBase
					{
						OFFSET 5.346399 -15.068900 20.645000
						CHANNELS 3 Xrotation Yrotation Zrotation
						JOINT LeftToe_End
						{
							OFFSET 2.754700 0.931300 11.300900
							CHANNELS 3 Xrotation Yrotation Zrotation
							End Site
							{
								OFFSET 0 0 0
							}
						}
					}
				}
			}
		}
	}
	JOINT RightUpLeg_virtual
	{
		OFFSET 0.000000 0.000000 0.000000
		CHANNELS 3 Xrotation Yrotation Zrotation
		JOINT RightUpLeg
		{
			OFFSET -15.569500 -6.655098 0.678600
			CHANNELS 3 Xrotation Yrotation Zrotation
			JOINT RightLeg
			{
				OFFSET -4.081825 -39.591045 13.023800
				CHANNELS 3 Xrotation Yrotation Zrotation
				JOINT RightFoot
				{
					OFFSET 4.081824 -37.707954 -15.979600
					CHANNELS 3 Xrotation Yrotation Zrotation
					JOINT RightToeBase
					{
						OFFSET -5.346400 -15.068900 20.645000
						CHANNELS 3 Xrotation Yrotation Zrotation
						JOINT RightToe_End
						{
							OFFSET -2.754700 0.931300 11.300900
							CHANNELS 3 Xrotation Yrotation Zrotation
							End Site
							{
								OFFSET 0 0 0
							}
						}
					}
				}
			}
		}
	}
	JOINT Spine_virtual
	{
		OFFSET 0.000000 0.000000 0.000000
		CHANNELS 3 Xrotation Yrotation Zrotation
		JOINT Spine
		{
			OFFSET -0.279200 12.230698 -2.892100
			CHANNELS 3 Xrotation Yrotation Zrotation
			JOINT Spine1
			{
				OFFSET -0.232667 10.192268 -1.242267
				CHANNELS 3 Xrotation Yrotation Zrotation
				JOINT Spine1_split
				{
					OFFSET -0.232667 10.192268 -1.242267
					CHANNELS 3 Xrotation Yrotation Zrotation
					JOINT Spine2
					{
						OFFSET -0.232667 10.192268 -1.242267
						CHANNELS 3 Xrotation Yrotation Zrotation
						JOINT Neck_virtual
						{
							OFFSET 0.000000 0.000000 0.000000
							CHANNELS 3 Xrotation Yrotation Zrotation
							JOINT Neck
							{
								OFFSET -0.418800 17.814194 8.416900
								CHANNELS 3 Xrotation Yrotation Zrotation
								JOINT Head
								{
									OFFSET 0.000000 7.031097 3.806800
									CHANNELS 3 Xrotation Yrotation Zrotation
									JOINT HeadTop_End
									{
										OFFSET 0.000000 24.646606 12.978600
										CHANNELS 3 Xrotation Yrotation Zrotation
										End Site
										{
											OFFSET 0 0 0
										}
									}
								}
							}
						}
						JOINT LeftShoulder_virtual
						{
							OFFSET 0.000000 0.000000 0.000000
							CHANNELS 3 Xrotation Yrotation Zrotation
							JOINT LeftShoulder
							{
								OFFSET 8.476499 7.247704 -3.868750
								CHANNELS 3 Xrotation Yrotation Zrotation
								JOINT LeftShoulder_split
								{
									OFFSET 8.476499 7.247704 -3.868750
									CHANNELS 3 Xrotation Yrotation Zrotation
									JOINT LeftArm
									{
										OFFSET 9.308998 -2.777710 0.208600
										CHANNELS 3 Xrotation Yrotation Zrotation
										JOINT LeftForeArm
										{
											OFFSET 29.972298 0.000000 0.000000
											CHANNELS 3 Xrotation Yrotation Zrotation
											JOINT LeftHand
											{
												OFFSET 26.026505 0.000000 0.000000
												CHANNELS 3 Xrotation Yrotation Zrotation
												End Site
												{
													OFFSET 0 0 0
												}
											}
										}
									}
								}
							}
						}
						JOINT RightShoulder_virtual
						{
							OFFSET 0.000000 0.000000 0.000000
							CHANNELS 3 Xrotation Yrotation Zrotation
							JOINT RightShoulder
							{
								OFFSET -7.570500 7.247704 -3.868750
								CHANNELS 3 Xrotation Yrotation Zrotation
								JOINT RightShoulder_split
								{
									OFFSET -7.570500 7.247704 -3.868750
									CHANNELS 3 Xrotation Yrotation Zrotation
									JOINT RightArm
									{
										OFFSET -9.308998 -2.777710 0.208500
										CHANNELS 3 Xrotation Yrotation Zrotation
										JOINT RightForeArm
										{
											OFFSET -29.972300 0.000000 0.000000
											CHANNELS 3 Xrotation Yrotation Zrotation
											JOINT RightHand
											{
												OFFSET -26.026505 0.000000 0.000000
												CHANNELS 3 Xrotation Yrotation Zrotation
												End Site
												{
													OFFSET 0 0 0
												}
											}
										}
									}
								}
							}
						}
					}
				}
			}
		}
	}
}
MOTION
Frames: 6
Frame Time: 0.03333333
-5.773100 82.365982 14.291859 0.000000 0.000000 0.000000 -3.838473 -26.161522 -2.083694 -29.244404 -5.857465 6.415489 33.574792 -3.331199 1.688867 -10.209027 -8.272531 -5.018046 -1.138802 -0.001201 2.614521 0.000000 0.000000 0.000000 -7.500051 -21.268292 -1.535659 -7.011015 -7.212487 4.186424 36.066141 8.402503 0.487000 -23.884837 -0.205776 1.141977 -0.920514 1.578176 2.544397 0.000000 0.000000 0.000000 -5.353133 -39.047105 -2.646324 12.550464 8.632783 4.082716 -3.504425 18.910550 1.231315 -0.739479 5.285872 0.828925 0.000000 0.000000 0.000000 13.697949 21.578741 -4.990181 -2.841120 15.357195 2.890416 5.468488 49.545366 -4.779611 0.000000 0.000000 0.000000 12.690351 22.447292 -4.435238 7.517224 -9.864584 -4.731953 5.070896 -9.068352 -3.359553 -33.124041 4.094817 -54.574175 -83.117098 12.728849 -86.052727 0.000000 0.000000 0.000000 16.429571 22.161795 -5.774320 5.172351 20.203604 -9.626240 -10.492031 -1.045959 -10.221442 -0.545050 36.154623 50.562804 -122.965781 70.080773 113.273879 0.000000 0.000000 0.000000 
-7.218285 82.536926 13.101013 0.000000 0.000000 0.000000 -4.476801 -23.631158 -1.619652 -27.585430 -3.473113 6.677018 29.598280 -2.152396 1.549944 -10.899778 -8.383397 -6.965873 -0.663257 0.351427 2.952129 0.000000 0.000000 0.000000 -8.024811 -18.422431 -1.025577 -5.833845 -7.004802 3.605686 34.558599 7.755419 2.405467 -23.775774 0.558965 -0.028102 0.129018 1.804145 2.487184 0.000000 0.000000 0.000000 -6.745742 -35.918196 -2.620049 13.883765 8.271273 4.127351 -3.782499 19.115466 0.851476 -0.377930 4.878370 1.035693 0.000000 0.000000 0.000000 13.942697 21.483648 -5.303058 -5.201742 15.319073 2.467204 5.789185 48.738751 -5.007407 0.000000 0.000000 0.000000 12.381367 22.547974 -4.686643 7.637225 -9.481337 -4.695504 6.770525 -9.847868 -3.384397 -34.944737 5.257956 -54.487844 -84.562134 12.662150 -86.514666 0.000000 0.000000 0.000000 15.681846 21.953809 -6.080429 4.801463 20.630136 -9.014770 -10.916654 -0.793979 -10.569139 0.361526 36.978033 48.225896 -123.416628 69.091960 113.759219 0.000000 0.000000 0.000000 
-8.269471 82.837082 12.395897 0.000000 0.000000 0.000000 -5.104294 -21.138961 -1.338365 -26.283382 0.192346 7.916868 26.225343 -0.522239 1.354951 -11.437504 -7.921351 -8.589420 -0.441229 0.821373 3.132366 0.000000 0.000000 0.000000 -8.318227 -15.886431 -0.625965 -5.120369 -6.699219 2.498908 33.623266 6.787007 4.113467 -23.388301 0.961270 -1.251994 1.145995 1.931897 2.366486 0.000000 0.000000 0.000000 -7.838637 -33.039387 -2.617050 15.166247 7.866164 3.991467 -4.134340 19.046778 0.505938 -0.182004 4.351651 1.113500 0.000000 0.000000 0.000000 13.957152 21.228728 -5.471267 -7.961913 15.191630 2.696902 6.623706 47.742807 -5.400113 0.000000 0.000000 0.000000 12.049363 22.346786 -4.919745 7.987619 -9.610192 -3.745120 8.304348 -10.290687 -3.665220 -36.360758 4.786909 -53.948065 -85.534357 12.574759 -85.761515 0.000000 0.000000 0.000000 14.724833 21.544903 -6.180391 4.295384 20.915735 -7.996478 -9.837230 0.205768 -11.365124 1.308246 38.201316 45.576712 -124.619520 68.654903 115.038827 0.000000 0.000000 0.000000 
-8.772861 83.261459 12.285496 0.000000 0.000000 0.000000 -5.562198 -18.503088 -1.333474 -25.821728 4.418416 10.221482 24.730296 1.283731 1.202793 -11.548982 -7.174653 -9.884222 -0.848060 1.410670 3.102909 0.000000 0.000000 0.000000 -8.390180 -13.419268 -0.424771 -4.800513 -6.425693 1.309417 33.222330 5.545834 5.401098 -22.750923 0.963271 -2.414551 1.666547 1.953207 2.185877 0.000000 0.000000 0.000000 -8.288332 -30.098069 -2.567765 16.062284 7.559603 3.690479 -4.542543 18.802910 0.348627 -0.221549 3.781971 1.000148 0.000000 0.000000 0.000000 13.758109 20.928960 -5.409993 -10.596632 14.680349 3.684082 7.178236 46.423471 -5.655505 0.000000 0.000000 0.000000 11.460449 21.978120 -4.914649 8.473896 -10.151586 -1.922324 9.551265 -10.847755 -4.034866 -37.475346 3.476661 -52.966071 -86.365495 12.481023 -84.231368 0.000000 0.000000 0.000000 13.580424 21.064985 -5.953971 3.639696 20.897592 -6.785354 -7.630066 1.782195 -12.512172 2.338709 39.324589 42.465663 -128.165918 68.745711 118.558601 0.000000 0.000000 0.000000 
-8.875648 83.952583 12.505543 0.000000 0.000000 0.000000 -5.607818 -15.246902 -1.628577 -26.531059 8.443383 13.575600 25.865950 3.182363 0.932001 -11.259919 -6.389032 -10.909989 -1.544108 2.123639 2.808739 0.000000 0.000000 0.000000 -8.425746 -10.692098 -0.499314 -4.989083 -6.362730 0.121324 33.007559 4.192814 6.069266 -21.926675 0.670512 -3.091461 1.171982 1.880162 1.921214 0.000000 0.000000 0.000000 -7.997251 -27.032494 -2.480729 16.254576 7.400016 3.252142 -5.028609 18.335892 0.479064 -0.486381 3.128676 0.636931 0.000000 0.000000 0.000000 13.368680 20.552411 -5.062564 -12.388501 13.747049 4.985134 6.996719 44.760815 -5.726497 0.000000 0.000000 0.000000 10.599813 21.495150 -4.553376 8.981981 -10.827890 0.504465 10.511390 -11.996739 -4.324148 -38.225608 2.508752 -51.618513 -87.885690 12.248574 -82.805539 0.000000 0.000000 0.000000 12.376452 20.524438 -5.310501 2.950425 20.325330 -5.714154 -5.307171 2.873995 -13.764388 2.915254 39.581626 39.357654 -135.435562 68.875511 125.588246 0.000000 0.000000 0.000000 
-8.783095 84.910744 12.897552 0.000000 0.000000 0.000000 -5.423595 -10.985840 -2.143803 -28.216592 11.649314 17.916597 29.426395 4.892877 0.454261 -10.282936 -5.730063 -12.172079 -2.134784 2.963284 2.277659 0.000000 0.000000 0.000000 -8.622647 -7.376103 -0.753325 -5.749405 -6.700019 -1.094836 32.996261 2.827404 6.069050 -21.061944 0.219562 -3.070294 -0.112399 1.744449 1.621436 0.000000 0.000000 0.000000 -7.244088 -23.368801 -2.391586 15.528918 7.458497 2.741631 -5.443995 17.554235 0.878901 -1.086573 2.825525 0.381791 0.000000 0.000000 0.000000 12.905765 19.990154 -4.447301 -12.856612 12.767315 6.124170 5.989829 43.278459 -6.078974 0.000000 0.000000 0.000000 9.507266 20.836470 -3.819587 9.390406 -11.340943 3.057094 11.164777 -13.164191 -4.504345 -38.989640 2.865418 -50.143588 -90.345077 11.904285 -81.851095 0.000000 0.000000 0.000000 11.257248 19.810173 -4.333618 2.456119 19.249112 -5.256100 -3.684817 2.742934 -14.441515 2.816512 38.455918 36.823339 -145.747918 68.335708 135.420043 0.000000 0.000000 0.000000 
